<svg width="220" height="90" viewBox="0 0 220 90" xmlns="http://www.w3.org/2000/svg">
  <g transform="translate(20, 8)">
    <g fill="#4f9cf9">
      <rect x="17" y="0" width="10" height="8" rx="2"/>
      <rect x="17" y="56" width="10" height="8" rx="2"/>
      <rect x="0" y="17" width="8" height="10" rx="2"/>
      <rect x="56" y="17" width="8" height="10" rx="2"/>
      <rect x="6" y="6" width="8" height="8" rx="2" transform="rotate(45 10 10)"/>
      <rect x="46" y="6" width="8" height="8" rx="2" transform="rotate(45 50 10)"/>
      <rect x="6" y="46" width="8" height="8" rx="2" transform="rotate(45 10 50)"/>
      <rect x="46" y="46" width="8" height="8" rx="2" transform="rotate(45 50 50)"/>
    </g>
    <circle cx="32" cy="32" r="24" fill="#4f9cf9"/>
    <circle cx="32" cy="32" r="14" fill="#0d0f14"/>
    <polyline points="22,36 32,24 42,36" fill="none" stroke="#4f9cf9" stroke-width="2.5" stroke-linecap="round" stroke-linejoin="round"/>
    <polyline points="25,36 25,42 39,42 39,36" fill="none" stroke="#4f9cf9" stroke-width="2" stroke-linecap="round" stroke-linejoin="round"/>
  </g>
  <text x="100" y="34" font-family="'Sora', sans-serif" font-size="18" font-weight="600" fill="#e8eaf0" letter-spacing="-0.5">Prop</text>
  <text x="100" y="54" font-family="'Sora', sans-serif" font-size="18" font-weight="600" fill="#4f9cf9" letter-spacing="-0.5">Gear</text>
  <text x="100" y="70" font-family="'DM Mono', monospace" font-size="9" fill="#555a70" letter-spacing="0.08em">Your Portfolio OS</text>
</svg>
